Coordinates
version=1
nRows=35
nColumns=10
inDegrees=yes

Units are S.I. units (second, meters, Newtons, ...)
Angles are in degrees.

endheader
time	pelvis_tilt	pelvis_tx	pelvis_ty	hip_flexion_r	knee_angle_r	ankle_angle_r	hip_flexion_l	knee_angle_l	ankle_angle_l
      0.00000000	     -4.47283486	      0.61244282	      1.00268286	    -11.01931586	     -9.54623196	     14.59926056	     29.67618808	     -5.34070073	     -2.94560531
      0.01700000	     -4.78540763	      0.61284858	      1.00164625	    -10.87736023	    -11.52280073	     14.74733289	     30.25520925	     -7.38145195	     -4.47773411
      0.03300000	     -5.01197542	      0.61408655	      1.00092556	    -10.86337319	    -13.45198598	     14.56280818	     30.58107162	     -9.29418698	     -5.81552528
      0.05000000	     -5.23382421	      0.61548162	      1.00043733	    -10.58548722	    -15.89077613	     14.18105475	     30.93284630	    -11.37421231	     -6.76899317
      0.06700000	     -5.13396824	      0.61778602	      1.00105443	    -10.48769898	    -18.60303322	     13.26335363	     30.87447427	    -13.59956732	     -7.11064810
      0.08300000	     -5.12660905	      0.62026006	      1.00221701	     -9.85043811	    -22.00997920	     11.87430011	     30.61705391	    -15.42338306	     -7.09409088
      0.10000000	     -5.03613772	      0.62281647	      1.00383327	     -8.73802150	    -26.27760231	      9.89735940	     30.26301640	    -17.41065855	     -6.48910014
      0.11700000	     -4.92173495	      0.62513165	      1.00618883	     -7.16148368	    -31.06394330	      6.99320754	     29.54031604	    -18.78538151	     -5.75081086
      0.13300000	     -4.94356790	      0.62685294	      1.00853487	     -4.86359707	    -36.40564501	      3.27451121	     28.76507993	    -19.77484257	     -4.81999115
      0.15000000	     -4.96538580	      0.62780131	      1.01130613	     -2.19625343	    -41.77178368	     -1.08626495	     27.68111635	    -20.09830507	     -3.92287652
      0.16700000	     -4.95524955	      0.62891794	      1.01437050	      0.48808965	    -46.66648191	     -5.31591641	     26.39199135	    -20.14842382	     -2.90180820
      0.18300000	     -5.13895591	      0.62796693	      1.01708730	      3.64003074	    -51.43525878	     -8.28033483	     25.30262602	    -19.92036675	     -2.06917461
      0.20000000	     -5.24630574	      0.62707241	      1.01979343	      6.63096558	    -55.75389888	     -9.44171929	     24.12679003	    -19.71775750	     -1.15647156
      0.21700000	     -5.47106743	      0.62548334	      1.02220446	      9.74301836	    -59.69964764	     -8.88083130	     23.08644833	    -19.45839822	     -0.32691173
      0.23300000	     -5.48708820	      0.62488000	      1.02523707	     12.34890874	    -62.80627527	     -7.35586229	     21.55168941	    -18.77398112	      0.37754148
      0.25000000	     -5.52149295	      0.62284057	      1.02790785	     15.05420897	    -65.41530311	     -5.54870869	     20.11012584	    -18.02949349	      0.96347810
      0.26700000	     -5.60281244	      0.62116273	      1.03012553	     17.61751275	    -67.20738995	     -3.93239686	     18.66419881	    -17.19449661	      1.56853157
      0.28300000	     -5.68985414	      0.61906934	      1.03204573	     20.14201638	    -68.29277668	     -2.73892804	     17.27912912	    -16.38301108	      2.10956001
      0.30000000	     -5.75838828	      0.61692963	      1.03364063	     22.46286210	    -68.55668440	     -1.84579278	     15.80550382	    -15.40461638	      2.56003044
      0.31700000	     -5.95193271	      0.61362070	      1.03428794	     24.88788506	    -68.19371950	     -1.13645020	     14.65431426	    -14.67129828	      3.08290784
      0.33300000	     -6.04859645	      0.61141464	      1.03515116	     26.79596413	    -66.83953905	     -0.48537323	     13.22722404	    -13.71635120	      3.53402823
      0.35000000	     -6.25120696	      0.60826191	      1.03523758	     28.67258504	    -64.80829237	      0.14618617	     12.07799978	    -12.99025901	      4.07185897
      0.36700000	     -6.26878352	      0.60530077	      1.03548729	     30.00997191	    -61.91206856	      0.62881190	     10.68742868	    -12.19629399	      4.55341940
      0.38300000	     -6.29342724	      0.60291540	      1.03548325	     30.96162931	    -58.17318333	      0.97993382	      9.28262906	    -11.43591069	      5.02652257
      0.40000000	     -6.39398572	      0.59973353	      1.03473387	     31.78069874	    -53.78234357	      1.09516147	      8.07957838	    -10.83062069	      5.56073200
      0.41700000	     -6.56324477	      0.59701182	      1.03377437	     32.26460112	    -48.55966668	      0.90276203	      6.88772545	    -10.13969391	      6.04657478
      0.43300000	     -6.65699310	      0.59480254	      1.03240007	     32.28914286	    -42.63861110	      0.47671535	      5.60590124	     -9.49107245	      6.64068696
      0.45000000	     -6.60809376	      0.59288837	      1.03075677	     31.83292298	    -36.13520068	     -0.22633951	      4.20068126	     -8.94551630	      7.35251105
      0.46700000	     -6.65632515	      0.59080482	      1.02834243	     31.22483202	    -29.16349750	     -1.18846384	      2.98775926	     -8.58102256	      8.19466129
      0.48300000	     -6.46911458	      0.59026758	      1.02587629	     30.08876822	    -21.97549990	     -2.11439929	      1.13627011	     -7.62536604	      8.84060412
      0.50000000	     -6.18044399	      0.59034573	      1.02281653	     28.91022098	    -15.22423457	     -2.76151606	     -0.83658688	     -6.75874478	      9.58308736
      0.51700000	     -5.87468079	      0.59029017	      1.01915556	     28.06631996	     -9.57000587	     -2.87013286	     -2.80246876	     -5.94849709	     10.35890748
      0.53300000	     -5.58264889	      0.59043054	      1.01521349	     27.51064440	     -5.07689122	     -2.38844223	     -4.71231979	     -5.24803664	     11.13369399
      0.55000000	     -5.30858979	      0.59091800	      1.01144416	     27.07468028	     -1.53556657	     -1.59968837	     -6.59791547	     -4.58137339	     11.77582176
      0.56700000	     -5.17089441	      0.59065984	      1.00770109	     27.10713531	      0.59350840	     -0.69491168	     -8.01622189	     -4.49310080	     12.52806071
